# xmcd
#
# Track frame offsets:
#	150
#	14265
#	26952
#	50927
#	63200
#	80802
#	95675
#	111270
#	129487
#	149155
#	171475
#
# Disc length: 2472
#
# Revision: 1
# Processed by: cddbd v1.5.1PL0 Copyright (c) Steve Scherf et al.
# Submitted via: inCDius 1.1b3
# Normalized: r0:DSETVAR1
#
DISCID=ab09a60b
DTITLE=Various Artist - Cryin' The Blues
DYEAR=1900
DGENRE=
TTITLE0=Buddy Guy - Sit and Cry
TTITLE1=The Paul deLay Band - Mine All Mine
TTITLE2=Jimmy Johnson - When My First Wife Quit Me
TTITLE3=John Lee Hooker - House Rent Boogie
TTITLE4=Carey Bell and Willie Williams - Shoing Off My Car
TTITLE5=Tommy Tucker - Drunk
TTITLE6=Sunnyland Slim - I Had (It So Hard)
TTITLE7=Billy Boy Arnold and Sammy Lawhorn - Ooh Wee
TTITLE8=Fenton Robinson - You Don't Know What Love Is
TTITLE9=Charlie Musselwhite - Christo Redemptor
TTITLE10=The Clovers - He Sure Could Hypnotize
EXTD=Blues Legends, BLS 12172
EXTT0=
EXTT1=
EXTT2=
EXTT3=
EXTT4=
EXTT5=
EXTT6=
EXTT7=
EXTT8=
EXTT9=
EXTT10=
PLAYORDER=
